{
	"asset":{
		"generator":"Khronos glTF Blender I/O v4.2.69",
		"version":"2.0"
	},
	"scene":0,
	"scenes":[
		{
			"name":"Scene",
			"nodes":[
				0
			]
		}
	],
	"nodes":[
		{
			"mesh":0,
			"name":"Sphere.001",
			"rotation":[
				-0.15234503149986267,
				-0.007764009293168783,
				0.029819834977388382,
				0.9878469109535217
			],
			"scale":[
				0.09947537630796432,
				0.09947537630796432,
				0.09947537630796432
			],
			"translation":[
				0.010692864656448364,
				2.673506021499634,
				0.41273677349090576
			]
		}
	],
	"materials":[
		{
			"doubleSided":true,
			"name":"Material.003",
			"pbrMetallicRoughness":{
				"baseColorFactor":[
					0.5775507092475891,
					0.49422693252563477,
					0.37206581234931946,
					1
				],
				"metallicFactor":0,
				"roughnessFactor":0.5
			}
		},
		{
			"doubleSided":true,
			"name":"Material",
			"pbrMetallicRoughness":{
				"baseColorFactor":[
					0.6239565014839172,
					0.6307578682899475,
					0.5972023606300354,
					1
				],
				"metallicFactor":0
			}
		}
	],
	"meshes":[
		{
			"name":"Sphere.003",
			"primitives":[
				{
					"attributes":{
						"POSITION":0,
						"NORMAL":1,
						"TEXCOORD_0":2
					},
					"indices":3,
					"material":0
				},
				{
					"attributes":{
						"POSITION":4,
						"NORMAL":5,
						"TEXCOORD_0":6
					},
					"indices":7,
					"material":1
				}
			]
		}
	],
	"accessors":[
		{
			"bufferView":0,
			"componentType":5126,
			"count":1118,
			"max":[
				2.751971483230591,
				1.7856967449188232,
				1.0300182104110718
			],
			"min":[
				-2.7682723999023438,
				-1.7082276344299316,
				-1.034530520439148
			],
			"type":"VEC3"
		},
		{
			"bufferView":1,
			"componentType":5126,
			"count":1118,
			"type":"VEC3"
		},
		{
			"bufferView":2,
			"componentType":5126,
			"count":1118,
			"type":"VEC2"
		},
		{
			"bufferView":3,
			"componentType":5123,
			"count":5760,
			"type":"SCALAR"
		},
		{
			"bufferView":4,
			"componentType":5126,
			"count":1895268,
			"max":[
				9.15684986114502,
				6.510808944702148,
				1.5977420806884766
			],
			"min":[
				-10.13176155090332,
				-11.707401275634766,
				-16.072818756103516
			],
			"type":"VEC3"
		},
		{
			"bufferView":5,
			"componentType":5126,
			"count":1895268,
			"type":"VEC3"
		},
		{
			"bufferView":6,
			"componentType":5126,
			"count":1895268,
			"type":"VEC2"
		},
		{
			"bufferView":7,
			"componentType":5125,
			"count":2844288,
			"type":"SCALAR"
		}
	],
	"bufferViews":[
		{
			"buffer":0,
			"byteLength":13416,
			"byteOffset":0,
			"target":34962
		},
		{
			"buffer":0,
			"byteLength":13416,
			"byteOffset":13416,
			"target":34962
		},
		{
			"buffer":0,
			"byteLength":8944,
			"byteOffset":26832,
			"target":34962
		},
		{
			"buffer":0,
			"byteLength":11520,
			"byteOffset":35776,
			"target":34963
		},
		{
			"buffer":0,
			"byteLength":22743216,
			"byteOffset":47296,
			"target":34962
		},
		{
			"buffer":0,
			"byteLength":22743216,
			"byteOffset":22790512,
			"target":34962
		},
		{
			"buffer":0,
			"byteLength":15162144,
			"byteOffset":45533728,
			"target":34962
		},
		{
			"buffer":0,
			"byteLength":11377152,
			"byteOffset":60695872,
			"target":34963
		}
	],
	"buffers":[
		{
			"byteLength":72073024,
			"uri":"avatarLatestLIGHT.bin"
		}
	]
}
